<svg width="70.000000" height="72.500000" viewBox="0 0 70 72.5" fill="none" xmlns="http://www.w3.org/2000/svg" xmlns:xlink="http://www.w3.org/1999/xlink">
	<desc>
			Created with Pixso.
	</desc>
	<defs>
		<clipPath id="clip2_647">
			<rect id="ground" width="35.833332" height="16.666666" transform="translate(17.500000 55.833984)" fill="white" fill-opacity="0"/>
		</clipPath>
	</defs>
	<circle id="bg" cx="35.000000" cy="35.000000" r="35.000000" fill="#339933" fill-opacity="1.000000"/>
	<g clip-path="url(#clip2_647)">
		<mask id="mask2_645" mask-type="alpha" maskUnits="userSpaceOnUse" x="19.521118" y="55.888672" width="32.457825" height="24.884254">
			<path id="Union" d="M31.6023 58.0664C32.0442 56.7988 33.2499 55.8887 34.6681 55.8887C35.4648 55.8887 36.1947 56.1758 36.7595 56.6523C37.7616 56.1641 38.8876 55.8887 40.0776 55.8887C43.1067 55.8887 45.7203 57.666 46.9318 60.2363C48.2482 60.3828 49.327 61.3164 49.6868 62.5547C51.0819 63.6445 51.979 65.3418 51.979 67.248C51.979 70.5352 49.3148 73.1992 46.0283 73.1992C45.767 73.1992 45.5095 73.1816 45.2571 73.1504C44.2915 77.5117 40.4017 80.7734 35.75 80.7734C30.6975 80.7734 26.5437 76.9258 26.0597 72C25.6956 72.0762 25.3179 72.1172 24.9308 72.1172C21.9431 72.1172 19.5211 69.6953 19.5211 66.707C19.5211 63.9707 21.5527 61.709 24.1898 61.3477C24.787 60.043 26.1053 59.1348 27.6356 59.1348C28.0118 59.1348 28.3752 59.1895 28.7183 59.291C29.4956 58.5957 30.4978 58.1465 31.6023 58.0664Z" clip-rule="evenodd" fill="#FFFFFF" fill-opacity="1.000000" fill-rule="evenodd"/>
		</mask>
		<g mask="url(#mask2_645)">
			<circle id="Ellipse 11" cx="35.000000" cy="35.000000" r="35.000000" fill="#FFFFFF" fill-opacity="1.000000"/>
		</g>
	</g>
	<path id="plant" d="M39.4891 36.248C38.6984 37.0039 37.8645 38.0254 37.1066 39.3945C36.3578 36.6992 35.4138 34.7227 34.4596 33.2754C38.8379 18.6895 17.5 18.166 17.5 18.166C17.5 18.166 18.1229 36.3965 29.2666 35.9785C29.244 34.7578 29.0544 33.5234 28.7891 32.3652C28.6154 31.6113 28.4089 30.8906 28.1957 30.2266C27.4832 28.0254 26.6787 26.4609 26.6787 26.4609C27.4911 27.5488 28.2103 28.5879 28.8457 29.5645C31.0321 32.9199 32.2256 35.5273 32.7804 36.9062C34.1499 39.8398 35.3798 44.6641 35.3798 52.5508C35.3798 53.4434 36.1071 54.166 36.9988 54.166C37.8928 54.166 38.6189 53.4434 38.6189 52.5508C38.6189 49.9941 38.4952 47.7207 38.2717 45.6914C38.788 43.2168 39.5675 41.459 40.3741 40.2148C40.9039 39.207 41.8809 37.4805 43.1969 35.7188C44.3689 34.1504 45.8145 32.5527 47.4493 31.4121C47.4493 31.4121 44.0967 35.1133 43.88 38.7344C53.1404 39.2168 53.5 24.6895 53.5 24.6895C53.5 24.6895 36.5529 25.2656 39.4891 36.248Z" fill="#FFFFFF" fill-opacity="1.000000" fill-rule="evenodd"/>
</svg>
