<svg width="60.000000" height="32.000000" viewBox="0 0 60 32" fill="none" xmlns="http://www.w3.org/2000/svg" xmlns:xlink="http://www.w3.org/1999/xlink">
	<desc>
			Created with Pixso.
	</desc>
	<defs>
		<clipPath id="clip2_18748">
			<rect id="free-icon-sleep-mode-107753" width="20.000000" height="20.000000" transform="translate(34.000000 6.000000)" fill="white" fill-opacity="0"/>
		</clipPath>
	</defs>
	<rect id="Rectangle 1" rx="16.000000" width="60.000000" height="32.000000" fill="#8B8B8B" fill-opacity="1.000000"/>
	<circle id="Ellipse 15" cx="16.000000" cy="16.000000" r="14.000000" fill="#F1F3F4" fill-opacity="1.000000"/>
	<rect id="free-icon-sleep-mode-107753" width="20.000000" height="20.000000" transform="translate(34.000000 6.000000)" fill="#FFFFFF" fill-opacity="0"/>
	<g clip-path="url(#clip2_18748)">
		<path id="Vector" d="M52.7592 17.5514C52.5575 17.3932 52.28 17.3733 52.0577 17.501C51.0038 18.1068 49.8898 18.4141 48.7467 18.4141C45.0737 18.4141 42.0858 15.4259 42.0858 11.7529C42.0858 10.6048 42.3934 9.49231 43.0002 8.44647C43.1292 8.22446 43.11 7.94632 42.9519 7.7439C42.7939 7.5415 42.5287 7.45538 42.2821 7.52667C40.5077 8.03812 38.9108 9.12329 37.7854 10.5822C36.6174 12.0964 36 13.9099 36 15.8266C36 20.6089 39.8905 24.4997 44.6727 24.4997C46.5895 24.4997 48.4033 23.8825 49.9183 22.7149C51.3782 21.5897 52.4639 19.9937 52.9753 18.2206C53.0465 17.9743 52.9609 17.7096 52.7592 17.5514ZM44.6727 23.2419C40.5841 23.2419 37.2577 19.9154 37.2577 15.8266C37.2577 13.0682 38.8362 10.5579 41.2351 9.29636C40.9645 10.0916 40.828 10.9133 40.828 11.7529C40.828 16.1194 44.3804 19.6718 48.7467 19.6718C49.5851 19.6718 50.4082 19.5348 51.2074 19.2632C49.9459 21.6627 47.4335 23.2419 44.6727 23.2419Z" fill="#F1F3F4" fill-opacity="1.000000" fill-rule="evenodd"/>
	</g>
</svg>
