<svg width="60.000000" height="32.000000" viewBox="0 0 60 32" fill="none" xmlns="http://www.w3.org/2000/svg" xmlns:xlink="http://www.w3.org/1999/xlink">
	<desc>
			Created with Pixso.
	</desc>
	<defs>
		<clipPath id="clip2_8547">
			<rect id="free-icon-brightness-107748" width="20.000000" height="20.000000" transform="translate(6.000000 6.000000)" fill="white" fill-opacity="0"/>
		</clipPath>
	</defs>
	<rect id="Rectangle 1" rx="16.000000" width="60.000000" height="32.000000" fill="#FFFFFF" fill-opacity="1.000000"/>
	<circle id="Ellipse 15" cx="44.000000" cy="16.000000" r="14.000000" fill="#8B8B8B" fill-opacity="1.000000"/>
	<rect id="free-icon-brightness-107748" width="20.000000" height="20.000000" transform="translate(6.000000 6.000000)" fill="#FFFFFF" fill-opacity="0"/>
	<g clip-path="url(#clip2_8547)">
		<path id="Vector" d="M15.9989 22.7617C15.6425 22.7617 15.3536 23.0508 15.3536 23.4062L15.3536 25.3555C15.3536 25.7109 15.6425 26 15.9989 26C16.3555 26 16.6443 25.7109 16.6443 25.3555L16.6443 23.4062C16.6443 23.0508 16.3555 22.7617 15.9989 22.7617Z" fill="#8B8B8B" fill-opacity="1.000000" fill-rule="evenodd"/>
		<path id="Vector" d="M15.9989 9.24023C16.3555 9.24023 16.6443 8.95117 16.6443 8.5957L16.6443 6.64648C16.6443 6.29102 16.3555 6.00195 15.9989 6.00195C15.6425 6.00195 15.3536 6.29102 15.3536 6.64648L15.3536 8.5957C15.3536 8.95117 15.6425 9.24023 15.9989 9.24023Z" fill="#8B8B8B" fill-opacity="1.000000" fill-rule="evenodd"/>
		<path id="Vector" d="M10.3066 20.7832L8.92859 22.1602C8.67651 22.4121 8.67651 22.8203 8.92834 23.0723C9.05444 23.1992 9.2196 23.2617 9.38489 23.2617C9.54993 23.2617 9.71509 23.1992 9.84106 23.0723L11.2191 21.6953C11.4712 21.4434 11.4712 21.0352 11.2194 20.7832C10.9672 20.5312 10.5586 20.5312 10.3066 20.7832Z" fill="#8B8B8B" fill-opacity="1.000000" fill-rule="evenodd"/>
		<path id="Vector" d="M21.2363 11.4082C21.4015 11.4082 21.5665 11.3457 21.6925 11.2188L23.0706 9.8418C23.3226 9.58984 23.3226 9.18164 23.0708 8.92969C22.8186 8.67773 22.41 8.67773 22.1581 8.92969L20.78 10.3066C20.528 10.5586 20.528 10.9668 20.7798 11.2188C20.906 11.3457 21.0712 11.4082 21.2363 11.4082Z" fill="#8B8B8B" fill-opacity="1.000000" fill-rule="evenodd"/>
		<path id="Vector" d="M9.23901 16C9.23901 15.6445 8.9502 15.3555 8.59375 15.3555L6.64526 15.3555C6.28882 15.3555 6 15.6445 6 16C6 16.3574 6.28882 16.6465 6.64526 16.6465L8.59375 16.6465C8.95007 16.6465 9.23901 16.3574 9.23901 16Z" fill="#8B8B8B" fill-opacity="1.000000" fill-rule="evenodd"/>
		<path id="Vector" d="M25.3547 15.3555L23.4056 15.3555C23.0492 15.3555 22.7604 15.6445 22.7604 16C22.7604 16.3574 23.0492 16.6465 23.4056 16.6465L25.3547 16.6465C25.7112 16.6465 26 16.3574 26 16C26 15.6445 25.7112 15.3555 25.3547 15.3555Z" fill="#8B8B8B" fill-opacity="1.000000" fill-rule="evenodd"/>
		<path id="Vector" d="M10.3065 11.2188C10.4325 11.3457 10.5977 11.4082 10.7628 11.4082C10.928 11.4082 11.0931 11.3457 11.2191 11.2188C11.4712 10.9668 11.4712 10.5586 11.2192 10.3066L9.84192 8.92969C9.58972 8.67773 9.18115 8.67773 8.92932 8.92969C8.67725 9.18164 8.67725 9.58984 8.9292 9.8418L10.3065 11.2188Z" fill="#8B8B8B" fill-opacity="1.000000" fill-rule="evenodd"/>
		<path id="Vector" d="M21.6936 20.7832C21.4414 20.5312 21.0328 20.5312 20.781 20.7832C20.5289 21.0352 20.5289 21.4434 20.7809 21.6953L22.1582 23.0723C22.2842 23.1992 22.4493 23.2617 22.6145 23.2617C22.7797 23.2617 22.9448 23.1992 23.0708 23.0723C23.3229 22.8203 23.3229 22.4121 23.0709 22.1602L21.6936 20.7832Z" fill="#8B8B8B" fill-opacity="1.000000" fill-rule="evenodd"/>
		<path id="Vector" d="M15.9998 10.1914C12.7963 10.1914 10.1899 12.7969 10.1899 16.002C10.1899 19.2051 12.7963 21.8105 15.9998 21.8105C19.2031 21.8105 21.8093 19.2051 21.8093 16.002C21.8093 12.7969 19.2031 10.1914 15.9998 10.1914ZM15.9998 20.5195C13.5078 20.5195 11.4806 18.4941 11.4806 16.002C11.4806 13.5098 13.5078 11.4824 15.9998 11.4824C18.4916 11.4824 20.5188 13.5098 20.5188 16.002C20.5188 18.4922 18.4916 20.5195 15.9998 20.5195Z" fill="#8B8B8B" fill-opacity="1.000000" fill-rule="evenodd"/>
	</g>
</svg>
