<svg width="44.000000" height="48.000000" viewBox="0 0 44 48" fill="none" xmlns="http://www.w3.org/2000/svg" xmlns:xlink="http://www.w3.org/1999/xlink">
	<path id="Vector" d="M22 0C16.49 0 12.05 4.37 12.05 9.79L12.05 11.75L4.19 11.75L4.1 12.61L0.12 46.89L0 48L44 48L43.87 46.89L39.89 12.61L39.8 11.75L31.94 11.75L31.94 9.79C31.94 4.37 27.5 0 22 0ZM22 1.95C26.43 1.95 29.95 5.42 29.95 9.79L29.95 11.75L14.04 11.75L14.04 9.79C14.04 5.42 17.56 1.95 22 1.95ZM5.99 13.71L12.05 13.71L12.05 15.94C11.46 16.28 11.06 16.91 11.06 17.63C11.06 18.71 11.95 19.59 13.05 19.59C14.15 19.59 15.03 18.71 15.03 17.63C15.03 16.91 14.63 16.28 14.04 15.94L14.04 13.71L29.95 13.71L29.95 15.94C29.36 16.28 28.96 16.91 28.96 17.63C28.96 18.71 29.84 19.59 30.94 19.59C32.04 19.59 32.93 18.71 32.93 17.63C32.93 16.91 32.53 16.28 31.94 15.94L31.94 13.71L38 13.71L41.76 46.04L2.23 46.04L5.99 13.71Z" fill="#FFFFFF" fill-opacity="1.000000" fill-rule="evenodd"/>
</svg>
